<?xml version="1.0"?>
<!-- Generated by SVGo -->
<svg width="2100" height="1200"
     xmlns="http://www.w3.org/2000/svg"
     xmlns:xlink="http://www.w3.org/1999/xlink">
<title>plot</title>
<rect x="0" y="0" width="2100" height="1200" style="fill: #ffffff" />
<g style="font-family: Helvetica; font-size: 12">
<rect x="0" y="0" width="700" height="400" style="stroke: #ffffff; opacity: 1.0000; fill: #ffffff; fill-opacity: 1.0000" />
<text x="350" y="17"  style="text-anchor:middle; font-size: 13" >Postgres vs Redis</text>
<text x="380" y="376"  style="text-anchor:middle" >  Query type  </text>
<line x1="-9223372036854775724" y1="328" x2="-9223372036854775724" y2="340" style="stroke:#000000; stroke-width: 1; fill:none; opacity: 1.000; " />
<text x="158" y="358"  style="text-anchor:middle" >Insert</text>
<line x1="-9223372036854775724" y1="328" x2="-9223372036854775724" y2="340" style="stroke:#000000; stroke-width: 1; fill:none; opacity: 1.000; " />
<text x="306" y="358"  style="text-anchor:middle" >Select</text>
<line x1="-9223372036854775724" y1="328" x2="-9223372036854775724" y2="340" style="stroke:#000000; stroke-width: 1; fill:none; opacity: 1.000; " />
<text x="454" y="358"  style="text-anchor:middle" >Update</text>
<line x1="-9223372036854775724" y1="328" x2="-9223372036854775724" y2="340" style="stroke:#000000; stroke-width: 1; fill:none; opacity: 1.000; " />
<text x="602" y="358"  style="text-anchor:middle" >Delete</text>
<line x1="84" y1="334" x2="676" y2="334" style="stroke:#000000; stroke-width: 2; fill:none; opacity: 1.000; " />
<text x="24" y="194" transform="rotate(-90 24 194)" style="text-anchor:middle" >Time, ns</text>
<line x1="66" y1="322" x2="78" y2="322" style="stroke:#000000; stroke-width: 1; fill:none; opacity: 1.000; " />
<text x="60" y="326"  style="text-anchor:end" >-500 k</text>
<line x1="66" y1="271" x2="78" y2="271" style="stroke:#000000; stroke-width: 1; fill:none; opacity: 1.000; " />
<text x="60" y="275"  style="text-anchor:end" >0</text>
<line x1="66" y1="220" x2="78" y2="220" style="stroke:#000000; stroke-width: 1; fill:none; opacity: 1.000; " />
<text x="60" y="224"  style="text-anchor:end" >500 k</text>
<line x1="66" y1="169" x2="78" y2="169" style="stroke:#000000; stroke-width: 1; fill:none; opacity: 1.000; " />
<text x="60" y="173"  style="text-anchor:end" >1000 k</text>
<line x1="66" y1="118" x2="78" y2="118" style="stroke:#000000; stroke-width: 1; fill:none; opacity: 1.000; " />
<text x="60" y="122"  style="text-anchor:end" >1.5 M</text>
<line x1="66" y1="66" x2="78" y2="66" style="stroke:#000000; stroke-width: 1; fill:none; opacity: 1.000; " />
<text x="60" y="70"  style="text-anchor:end" >2.0 M</text>
<line x1="72" y1="322" x2="72" y2="66" style="stroke:#000000; stroke-width: 2; fill:none; opacity: 1.000; " />
<line x1="72" y1="271" x2="676" y2="271" style="stroke:#404040; stroke-width: 1; fill:none; opacity: 1.000; " />
<rect x="110" y="255" width="48" height="16" style="stroke:#3030ff; stroke-opacity: 1.000; stroke-width: 2; fill: #cbcbff; fill-opacity: 1.000" />
<rect x="258" y="260" width="48" height="11" style="stroke:#3030ff; stroke-opacity: 1.000; stroke-width: 2; fill: #cbcbff; fill-opacity: 1.000" />
<rect x="406" y="109" width="48" height="162" style="stroke:#3030ff; stroke-opacity: 1.000; stroke-width: 2; fill: #cbcbff; fill-opacity: 1.000" />
<rect x="554" y="154" width="48" height="117" style="stroke:#3030ff; stroke-opacity: 1.000; stroke-width: 2; fill: #cbcbff; fill-opacity: 1.000" />
<rect x="159" y="267" width="48" height="4" style="stroke:#e04444; stroke-opacity: 1.000; stroke-width: 2; fill: #f6b5cc; fill-opacity: 1.000" />
<rect x="307" y="268" width="48" height="3" style="stroke:#e04444; stroke-opacity: 1.000; stroke-width: 2; fill: #f6b5cc; fill-opacity: 1.000" />
<rect x="455" y="264" width="48" height="7" style="stroke:#e04444; stroke-opacity: 1.000; stroke-width: 2; fill: #f6b5cc; fill-opacity: 1.000" />
<rect x="603" y="268" width="48" height="3" style="stroke:#e04444; stroke-opacity: 1.000; stroke-width: 2; fill: #f6b5cc; fill-opacity: 1.000" />
<rect x="294" y="38" width="10" height="10" style="stroke:#3030ff; stroke-opacity: 1.000; stroke-width: 2; fill: #cbcbff; fill-opacity: 1.000" />
<text x="324" y="47"  style="text-anchor:begin; font-size: 11" >Postgres</text>
<rect x="387" y="38" width="10" height="10" style="stroke:#e04444; stroke-opacity: 1.000; stroke-width: 2; fill: #f6b5cc; fill-opacity: 1.000" />
<text x="417" y="47"  style="text-anchor:begin; font-size: 11" >Redis</text>
</g>
</svg>
